<?xml version="1.0" standalone="no"?>
<!DOCTYPE svg PUBLIC "-//W3C//DTD SVG 20010904//EN"
 "http://www.w3.org/TR/2001/REC-SVG-20010904/DTD/svg10.dtd">
<svg version="1.0" xmlns="http://www.w3.org/2000/svg"
 width="300.000000pt" height="300.000000pt" viewBox="0 0 300.000000 300.000000"
 preserveAspectRatio="xMidYMid meet">
<metadata>
Created by potrace 1.10, written by Peter Selinger 2001-2011
</metadata>
<g transform="translate(0.000000,300.000000) scale(0.100000,-0.100000)"
fill="#000000" stroke="none">
<path d="M2502 2725 c-112 -35 -210 -69 -218 -76 -26 -22 -14 -51 48 -115 l62
-65 -824 -824 -825 -825 -125 0 -125 0 -130 -130 -130 -130 118 0 c64 0 117
-3 117 -8 0 -4 -43 -50 -95 -102 -94 -93 -110 -121 -83 -148 25 -25 53 -10
149 85 l99 97 0 -112 c0 -62 3 -112 8 -112 4 0 65 57 135 128 l127 127 0 120
0 120 825 825 824 824 32 -29 c18 -17 47 -45 65 -62 35 -35 64 -42 82 -20 17
20 144 444 140 469 -5 39 -57 32 -276 -37z"/>
<path d="M292 2758 c-7 -7 -12 -20 -12 -30 0 -18 114 -158 129 -158 4 0 18 23
31 51 22 45 23 52 9 63 -8 6 -36 28 -61 49 -47 38 -75 46 -96 25z"/>
<path d="M805 2673 c-16 -2 -81 -11 -143 -19 l-113 -17 -30 -59 c-17 -33 -27
-63 -24 -67 4 -3 122 -6 263 -7 353 -1 565 -33 801 -121 l93 -35 84 83 84 83
-27 15 c-100 52 -322 113 -496 136 -107 13 -405 19 -492 8z"/>
<path d="M300 2530 c0 -9 18 -187 39 -395 21 -209 58 -570 82 -802 l43 -423
43 0 c34 0 43 4 43 18 0 9 -18 193 -40 407 -22 215 -56 552 -76 750 l-36 360
-49 50 c-29 29 -49 43 -49 35z"/>
<path d="M1820 2389 c-86 -87 -86 -84 -25 -116 17 -8 58 -35 93 -59 35 -24 67
-44 72 -44 5 0 43 34 85 76 65 65 74 78 63 92 -15 18 -186 132 -199 132 -4 0
-45 -37 -89 -81z"/>
<path d="M2228 2053 l-78 -78 46 -65 c25 -36 57 -86 71 -112 14 -27 29 -48 32
-48 4 0 42 36 86 80 l80 80 -23 43 c-28 52 -119 177 -130 177 -4 0 -42 -35
-84 -77z"/>
<path d="M2422 1737 l-82 -82 36 -100 c79 -221 115 -452 118 -742 l1 -182 62
-7 c34 -3 66 -4 71 0 37 23 50 554 18 741 -27 160 -104 416 -135 447 -4 4 -44
-29 -89 -75z"/>
<path d="M902 518 l3 -43 170 -17 c94 -9 303 -30 465 -47 737 -76 984 -101
987 -98 1 2 -19 24 -45 49 l-47 47 -355 36 c-682 69 -946 96 -1030 105 -47 6
-100 10 -118 10 -33 0 -33 0 -30 -42z"/>
<path d="M2490 529 c0 -40 47 -102 126 -168 47 -39 90 -71 95 -71 24 0 49 22
49 43 0 12 -22 48 -49 79 -27 31 -59 70 -72 87 -20 24 -34 30 -86 36 -48 5
-63 4 -63 -6z"/>
</g>
</svg>
