<?xml version="1.0" standalone="no"?>
<!DOCTYPE svg PUBLIC "-//W3C//DTD SVG 20010904//EN"
 "http://www.w3.org/TR/2001/REC-SVG-20010904/DTD/svg10.dtd">
<svg version="1.0" xmlns="http://www.w3.org/2000/svg"
 width="300.000000pt" height="300.000000pt" viewBox="0 0 300.000000 300.000000"
 preserveAspectRatio="xMidYMid meet">
<metadata>
Created by potrace 1.10, written by Peter Selinger 2001-2011
</metadata>
<g transform="translate(0.000000,300.000000) scale(0.100000,-0.100000)"
fill="#000000" stroke="none">
<path d="M1407 2732 l-267 -268 0 -124 0 -125 33 -37 c19 -21 38 -38 43 -38 5
0 187 178 404 395 l394 395 -34 35 -34 35 -136 0 -135 0 -268 -268z"/>
<path d="M1732 2407 l-393 -393 66 -67 c36 -37 65 -70 65 -74 0 -4 -44 -52
-97 -105 l-98 -98 198 -197 197 -198 98 98 c53 53 101 97 105 97 4 0 37 -29
74 -65 l67 -66 393 393 c216 216 393 397 393 403 0 13 -652 665 -665 665 -6 0
-187 -177 -403 -393z"/>
<path d="M2532 1617 c-215 -215 -392 -395 -392 -399 0 -4 16 -23 37 -43 l36
-35 126 0 125 0 268 267 268 268 0 135 0 136 -33 32 c-18 18 -35 32 -38 32 -2
0 -181 -177 -397 -393z"/>
<path d="M761 1026 l-453 -454 132 -132 132 -133 454 454 454 454 -133 133
-132 132 -454 -454z"/>
<path d="M68 458 l-68 -21 0 -218 0 -219 219 0 218 0 23 76 22 76 -163 164
c-90 90 -168 164 -174 163 -5 0 -40 -10 -77 -21z"/>
</g>
</svg>
