<svg width="214" height="213" viewBox="0 0 214 213" fill="none" xmlns="http://www.w3.org/2000/svg">
<path d="M107.15 106.482V0.632385C165.609 0.632385 213 48.0229 213 106.482C213 110.917 212.721 115.348 212.165 119.749L107.15 106.482Z" fill="#E83B3B" stroke="white"/>
<path d="M107.15 106.482L212.165 119.749C211.609 124.149 210.778 128.51 209.675 132.806L107.15 106.482Z" fill="#BB3535" stroke="white"/>
<path d="M107.15 106.482L209.675 132.806C208.572 137.102 207.2 141.324 205.567 145.448L107.15 106.482Z" fill="#4A76D2" stroke="white"/>
<path d="M107.15 106.482L205.567 145.448C202.298 153.704 198.004 161.515 192.784 168.699L107.15 106.482Z" fill="#A53131" stroke="white"/>
<path d="M107.15 106.482L192.784 168.699C171.485 198.015 136.669 214.398 100.504 212.123L107.15 106.482Z" fill="#456BBB" stroke="white"/>
<path d="M107.15 106.482L100.504 212.123C91.642 211.565 82.8855 209.895 74.4408 207.151L107.15 106.482Z" fill="#3F60A5" stroke="white"/>
<path d="M107.15 106.482L74.4409 207.151C39.9776 195.953 13.6377 167.904 4.62598 132.806L107.15 106.482Z" fill="#D23838" stroke="white"/>
<path d="M107.15 106.482L4.62597 132.806C-5.57104 93.0911 8.08579 51.0597 39.6791 24.9235L107.15 106.482Z" fill="#FF3F3F" stroke="white"/>
<path d="M107.15 106.482L39.6791 24.9235C55.1558 12.12 73.9559 3.98448 93.8837 1.46701L107.15 106.482Z" fill="#568CFF" stroke="white"/>
<path d="M107.15 106.482L93.8838 1.46704C98.2841 0.911154 102.715 0.632385 107.15 0.632385V106.482Z" fill="#5081E8" stroke="white"/>
</svg>
