<svg width="17" height="24" viewBox="0 0 17 24" fill="none" xmlns="http://www.w3.org/2000/svg">
<path d="M8.17951 23.3421C14.0154 23.3421 17.6426 17.0335 14.725 11.9866L8.17951 0.630524L1.63407 11.9866C-1.2837 17.0335 2.34377 23.3421 8.17951 23.3421Z" fill="#BD1E38"/>
<path d="M8.1795 23.9995C11.5179 23.9995 14.4881 21.9492 15.7763 18.9C16.854 16.3501 16.4334 13.6427 15.0929 11.3032C12.9899 7.64926 10.8608 3.96936 8.75772 0.3155C8.52109 -0.105167 7.864 -0.105167 7.62738 0.3155C5.52444 3.94312 3.42155 7.57053 1.34491 11.2244C-0.0220443 13.5902 -0.442528 16.1662 0.530079 18.7685C1.7128 21.9492 4.81459 23.9206 8.17956 23.9996C9.02068 24.0259 9.02068 22.7115 8.17956 22.6853C4.63078 22.6066 1.68681 20.0041 1.29237 16.4555C1.05574 14.3262 2.0283 12.5914 3.0535 10.8565C4.94607 7.57063 6.83869 4.28497 8.75787 0.998949H7.62754C9.52011 4.28482 11.4127 7.57048 13.3319 10.8565C14.3571 12.6439 15.2508 14.3001 15.093 16.4555C14.8301 19.9517 11.6232 22.6858 8.17977 22.6858C7.33843 22.6858 7.33843 24 8.17977 24L8.1795 23.9995Z" fill="black"/>
</svg>
